<?xml version="1.0" encoding="utf-8"?>
<!-- Generator: Adobe Illustrator 24.3.0, SVG Export Plug-In . SVG Version: 6.00 Build 0)  -->
<svg version="1.1" id="Calque_1" xmlns="http://www.w3.org/2000/svg" xmlns:xlink="http://www.w3.org/1999/xlink" x="0px" y="0px"
	 viewBox="0 0 30 30" style="enable-background:new 0 0 30 30;" xml:space="preserve">
<style type="text/css">
	.st0{fill:url(#SVGID_1_);}
	.st1{fill:url(#SVGID_2_);}
</style>
<g>
	<linearGradient id="SVGID_1_" gradientUnits="userSpaceOnUse" x1="17.5234" y1="24.2521" x2="14.0834" y2="-1.3915">
		<stop  offset="0" style="stop-color:#4B51CA"/>
		<stop  offset="1" style="stop-color:#00CCD9"/>
	</linearGradient>
	<path class="st0" d="M12.57,13c-0.3,0-0.57,0.13-0.76,0.36c-1.35,1.66-2.06,3.76-2.06,6.07c0,3.64,1.75,6.58,4.79,8.08
		c1.26,0.62,5.35,1.79,9.17-0.19c0.1-0.05,0.19-0.1,0.27-0.13c0.24-0.12,0.41-0.2,0.77-0.45c0.33-0.23,0.29-0.67,0.14-1.01
		l-0.9-2.01c-1.5,1.51-3.51,2.01-4.92,1.97c-4.71-0.14-6.38-3.27-6.38-6.15c0-1.75,0.5-3.23,1.49-4.42l-0.67-1.51
		c-0.14-0.32-0.44-0.54-0.78-0.59C12.66,13,12.62,13,12.57,13z"/>
	<linearGradient id="SVGID_2_" gradientUnits="userSpaceOnUse" x1="14.8394" y1="24.6122" x2="11.3994" y2="-1.0314">
		<stop  offset="0" style="stop-color:#4B51CA"/>
		<stop  offset="1" style="stop-color:#00CCD9"/>
	</linearGradient>
	<path class="st1" d="M10.39,1.59L5.2,13.11c-0.32,0.71-0.25,1.53,0.17,2.18c0.37,0.57,0.99,0.95,1.66,1.03L8.46,13l3.77-8.56
		l5.69,13.09l1,2.24c0.37,0.82,1.19,1.35,2.09,1.35h1.81L14.66,2.94c-0.37-0.82-1.19-1.35-2.09-1.35H10.39z"/>
</g>
</svg>
