<?xml version="1.0" encoding="utf-8"?>
<!-- Generator: Adobe Illustrator 24.3.0, SVG Export Plug-In . SVG Version: 6.00 Build 0)  -->
<svg version="1.1" id="Layer_1" xmlns="http://www.w3.org/2000/svg" xmlns:xlink="http://www.w3.org/1999/xlink" x="0px" y="0px"
	 viewBox="0 0 64 64" style="enable-background:new 0 0 64 64;" xml:space="preserve">
<style type="text/css">
	.st0{fill:#F1F8FA;}
	.st1{fill:#1EB7D3;}
	.st2{fill:#101A1E;}
</style>
<g>
	<circle class="st0" cx="7.9" cy="12.2" r="1.3"/>
	<rect x="9.7" y="34.1" class="st0" width="2.9" height="2.9"/>
	<rect x="30.6" y="10.8" class="st0" width="2.9" height="2.9"/>
	<circle class="st0" cx="56.1" cy="12.2" r="1.3"/>
	<rect x="51.5" y="34.1" class="st0" width="2.9" height="2.9"/>
	<path class="st1" d="M33,29.4c0,0.6-0.4,1-1,1s-1-0.4-1-1V18.8l-9.8,19.1c1.5,1.3,4.9,4.8,5.1,10.4h11.4c0.2-5.7,3.6-9.2,5.1-10.4
		L33,18.8V29.4z"/>
	<path class="st0" d="M25.3,50.3h-1.4c-0.1,0-0.2,0.1-0.2,0.2V53c0,0.1,0.1,0.2,0.2,0.2h15.8c0.1,0,0.2-0.1,0.2-0.2v-2.5
		c0-0.1-0.1-0.2-0.2-0.2h-1H25.3z"/>
	<path class="st2" d="M56.1,8.9c-1.5,0-2.7,1-3.1,2.3H35.4V9.8c0-0.6-0.4-1-1-1h-4.9c-0.6,0-1,0.4-1,1v1.4H11.1
		C10.7,9.9,9.4,8.9,8,8.9c-1.8,0-3.3,1.5-3.3,3.3s1.5,3.3,3.3,3.3c1.5,0,2.7-1,3.1-2.3h11.8c-7.3,3.3-12.3,10.5-12.7,18.9H8.7
		c-0.6,0-1,0.4-1,1V38c0,0.6,0.4,1,1,1h4.9c0.6,0,1-0.4,1-1v-4.9c0-0.6-0.4-1-1-1h-1.4c0.5-9.3,7.3-17,16.4-18.6v1.1
		c0,0.6,0.4,1,1,1h0.8L19.1,37.7c-0.2,0.4-0.1,1,0.3,1.3c0,0,4.6,3.2,4.9,9.3h-0.4c-1.2,0-2.2,1-2.2,2.2V53c0,1.2,1,2.2,2.2,2.2
		h15.8c1.2,0,2.2-1,2.2-2.2v-2.5c0-1.2-1-2.2-2.2-2.2l0,0c0.3-6.1,4.7-9.2,4.9-9.3c0.4-0.3,0.6-0.8,0.3-1.3l-11.3-22h0.8
		c0.6,0,1-0.4,1-1v-1.1c9.1,1.6,15.9,9.3,16.4,18.6h-1.4c-0.6,0-1,0.4-1,1V38c0,0.6,0.4,1,1,1h4.9c0.6,0,1-0.4,1-1v-4.9
		c0-0.6-0.4-1-1-1h-1.5c-0.4-8.3-5.4-15.5-12.7-18.9h11.8c0.4,1.3,1.7,2.3,3.1,2.3c1.8,0,3.3-1.5,3.3-3.3
		C59.4,10.4,57.9,8.9,56.1,8.9z M7.9,13.5c-0.7,0-1.3-0.6-1.3-1.3s0.6-1.3,1.3-1.3s1.3,0.6,1.3,1.3C9.2,13,8.6,13.5,7.9,13.5z
		 M12.5,34.1V37H9.7v-2.9H12.5z M30.6,10.8h2.9v2.9h-2.9V10.8z M39.7,50.3c0.1,0,0.2,0.1,0.2,0.2V53c0,0.1-0.1,0.2-0.2,0.2H23.9
		c-0.1,0-0.2-0.1-0.2-0.2v-2.5c0-0.1,0.1-0.2,0.2-0.2h1.4h13.3H39.7z M42.8,37.9c-1.5,1.3-4.9,4.8-5.1,10.4H26.3
		c-0.2-5.7-3.6-9.2-5.1-10.4L31,18.8v10.5c0,0.6,0.4,1,1,1c0.6,0,1-0.4,1-1V18.8L42.8,37.9z M54.3,34.1V37h-2.9v-2.9H54.3z
		 M56.1,13.5c-0.7,0-1.3-0.6-1.3-1.3s0.6-1.3,1.3-1.3s1.3,0.6,1.3,1.3C57.4,13,56.8,13.5,56.1,13.5z"/>
</g>
</svg>
