<?xml version="1.0" encoding="utf-8"?>
<!-- Generator: Adobe Illustrator 24.3.0, SVG Export Plug-In . SVG Version: 6.00 Build 0)  -->
<svg version="1.1" id="Layer_1" xmlns="http://www.w3.org/2000/svg" xmlns:xlink="http://www.w3.org/1999/xlink" x="0px" y="0px"
	 viewBox="0 0 64 64" style="enable-background:new 0 0 64 64;" xml:space="preserve">
<style type="text/css">
	.st0{fill:#1EB7D3;}
	.st1{fill:#C0E3EC;}
	.st2{fill:#82858C;}
	.st3{fill:#101A1E;}
	.st4{fill:#F1F8FA;}
</style>
<g>
	<path class="st0" d="M238.3-17.7h5.7c0.2-2.9,1.9-4.8,2.8-5.7l-4.6-9.1v4.3c0,0.6-0.4,1-1,1c-0.6,0-1-0.4-1-1v-4.3l-4.7,9.1
		C236.5-22.5,238.1-20.6,238.3-17.7z"/>
	<path class="st1" d="M236.5-29.6h-13.6v19.3h36.6v-19.3h-13.6l3.1,6c0.2,0.4,0.1,1-0.3,1.3c-0.1,0.1-2.3,1.6-2.6,4.6
		c0.7,0.2,1.2,0.8,1.2,1.6v1.4c0,0.9-0.8,1.7-1.7,1.7h-9.1c-0.9,0-1.7-0.8-1.7-1.7v-1.4c0-0.9,0.6-1.6,1.5-1.7
		c-0.3-3-2.5-4.5-2.6-4.6c-0.4-0.3-0.6-0.8-0.3-1.3L236.5-29.6z"/>
	<path class="st0" d="M247.5-5l-0.7,0.9c-0.2,0.3-0.5,0.4-0.8,0.4h-9.6c-0.3,0-0.6-0.2-0.8-0.4L234.9-5h-16.6h-3.9v0.7l3.5,1.9h46.6
		l3.5-1.9V-5h-3.9H247.5z"/>
	<path class="st2" d="M235.8-6.9L235.8-6.9c0.2,0.1,0.3,0.1,0.3,0.2c0,0,0,0,0,0.1l0.1,0.1l0.7,0.9h8.6l0.7-0.9l0.1-0.1l0,0
		c0.1-0.1,0.2-0.1,0.3-0.2c0,0,0,0,0.1,0c0.1,0,0.2-0.1,0.4-0.1l0,0h17v-26h-19.9l0.7,1.4h15.6c0.6,0,1,0.4,1,1v21.3
		c0,0.6-0.4,1-1,1h-38.6c-0.6,0-1-0.4-1-1v-21.4c0-0.6,0.4-1,1-1h15.6l0.7-1.4h-19.8v26h17C235.6-7,235.7-6.9,235.8-6.9z"/>
	<polygon class="st0" points="245,-15.7 237.4,-15.7 236.9,-15.7 236.9,-15 245.3,-15 245.3,-15.7 	"/>
	<path class="st3" d="M269-7h-3v-26.1c0-1-0.9-1.9-1.9-1.9h-20.9l-0.7-1.3h0.5V-37h10.7c0.1,0,0.2,0,0.3-0.1
		c0.3,0.5,0.9,0.9,1.5,0.9c1,0,1.8-0.8,1.8-1.8s-0.8-1.8-1.8-1.8c-0.7,0-1.2,0.4-1.5,0.9c-0.1,0-0.2-0.1-0.3-0.1H243v-0.9h-3.6v0.9
		h-10.7c-0.1,0-0.2,0-0.3,0.1c-0.3-0.5-0.9-0.9-1.5-0.9c-1,0-1.8,0.8-1.8,1.8s0.8,1.8,1.8,1.8c0.7,0,1.2-0.4,1.5-0.9
		c0.1,0,0.2,0.1,0.3,0.1h10.7v0.7h0.5l-0.7,1.3h-20.9c-1,0-1.9,0.9-1.9,1.9V-7h-3c-0.6,0-1,0.4-1,1v2.3c0,0.4,0.2,0.7,0.5,0.9
		l4.3,2.3c0.1,0.1,0.3,0.1,0.5,0.1h47.1c0.2,0,0.3,0,0.5-0.1l4.3-2.3c0.3-0.2,0.5-0.5,0.5-0.9V-6C270-6.5,269.6-7,269-7z
		 M240.2-32.5v4.3c0,0.6,0.4,1,1,1c0.6,0,1-0.4,1-1v-4.3l4.7,9.1c-0.9,0.9-2.6,2.8-2.8,5.7h-5.7c-0.2-2.9-1.9-4.8-2.8-5.7
		L240.2-32.5z M233.7-22.3c0.1,0.1,2.3,1.6,2.6,4.6c-0.8,0.1-1.5,0.8-1.5,1.7v1.4c0,0.9,0.8,1.7,1.7,1.7h9.1c0.9,0,1.7-0.8,1.7-1.7
		V-16c0-0.8-0.5-1.4-1.2-1.6c0.3-3,2.5-4.6,2.6-4.6c0.4-0.3,0.6-0.8,0.3-1.3l-3.1-6h13.6v19.3h-36.6v-19.4h13.6l-3.1,6
		C233.2-23.2,233.3-22.6,233.7-22.3z M236.9-15v-0.8h0.5h7.7h0.3v0.8H236.9z M218.4-33h19.8l-0.7,1.4h-15.6c-0.6,0-1,0.4-1,1v21.3
		c0,0.6,0.4,1,1,1h38.6c0.6,0,1-0.4,1-1v-21.3c0-0.6-0.4-1-1-1h-15.6l-0.7-1.4H264v26h-17l0,0c-0.1,0-0.2,0-0.4,0.1c0,0,0,0-0.1,0
		c-0.1,0-0.2,0.1-0.3,0.2l0,0l-0.1,0.1l-0.7,0.9h-8.6l-0.6-0.8l-0.1-0.1c0,0,0,0,0-0.1c-0.1-0.1-0.2-0.1-0.3-0.2c0,0,0,0-0.1,0
		c-0.1,0-0.2-0.1-0.3-0.1h-17C218.4-7,218.4-33,218.4-33z M268-4.3l-3.5,1.9h-46.6l-3.5-1.9V-5h3.9h16.6l0.7,0.9
		c0.2,0.3,0.5,0.4,0.8,0.4h9.6c0.3,0,0.6-0.2,0.8-0.4l0.7-0.9h16.6h3.9C268-5,268-4.3,268-4.3z"/>
</g>
<g>
	<polygon class="st0" points="20.7,15.6 9.7,21.8 12.2,26.2 23.2,19.9 	"/>
	<polygon class="st0" points="17.4,9.8 6.5,16 8.7,20.1 19.7,13.8 	"/>
	<polygon class="st0" points="24.2,21.7 13.2,27.9 15.7,32.3 26.7,26.1 	"/>
	<polygon class="st4" points="38.5,27.7 29.8,27.5 32.7,32.6 38.4,32.7 	"/>
	<polygon class="st4" points="38.5,25.7 38.6,20.6 26.1,20.4 26.1,21 28.6,25.5 	"/>
	<polygon class="st4" points="38.7,13.6 26.2,13.4 26.1,18.4 38.6,18.6 	"/>
	<polygon class="st4" points="38.8,6.9 26.2,6.8 26.2,11.4 38.8,11.6 	"/>
	<polygon class="st4" points="38.2,41.7 37.8,41.7 38.2,42.4 	"/>
	<polygon class="st0" points="27.7,27.8 16.7,34 19.2,38.4 30.2,32.2 	"/>
	<polygon class="st4" points="38.4,34.7 33.8,34.6 36.7,39.7 38.3,39.7 	"/>
	<path class="st1" d="M32.3,47.6c-0.2,0-0.4,0-0.5,0.1c-0.5,0.3-0.7,0.9-0.4,1.5c0.3,0.5,1,0.7,1.5,0.4s0.7-0.9,0.4-1.5
		C33.1,47.8,32.7,47.6,32.3,47.6z"/>
	<polygon class="st1" points="40.4,34.9 45.6,37.6 47.9,33.1 40.5,29.2 	"/>
	<polygon class="st1" points="41,19.3 52.1,25.1 54.4,20.7 43.3,14.8 	"/>
	<polygon class="st1" points="40.5,27 48.8,31.3 51.2,26.9 40.6,21.3 	"/>
	<polygon class="st1" points="44.2,13 55.4,18.9 57.5,14.7 46.3,8.9 	"/>
	<polygon class="st1" points="40.2,42.7 42.3,43.8 44.6,39.3 40.3,37.1 	"/>
	<path class="st2" d="M23.7,46.2L29.9,57l10.9-6.2L34.6,40L23.7,46.2z M33.8,51.4c-0.5,0.3-1,0.4-1.5,0.4c-1.1,0-2.1-0.6-2.7-1.6
		c-0.8-1.5-0.3-3.3,1.1-4.2c0.5-0.3,1-0.4,1.5-0.4c1.1,0,2.1,0.6,2.7,1.6C35.8,48.7,35.3,50.5,33.8,51.4z"/>
	<polygon class="st0" points="31.1,33.9 20.2,40.1 22.7,44.5 33.6,38.3 	"/>
	<polygon class="st1" points="40.2,45.8 40.7,46.8 41.4,45.6 40.2,45 	"/>
	<path class="st3" d="M58.5,13L47.3,7.2c-0.9-0.5-2.1-0.1-2.6,0.8l-4,7.5l0.1-8.6c0-1.1-0.8-2-1.9-2L26.3,4.8l0,0
		c-1.1,0-1.9,0.9-1.9,1.9l-0.2,10.9l-5-8.8c-0.5-0.9-1.7-1.2-2.7-0.7l-11,6.3c-0.9,0.5-1.3,1.7-0.7,2.7l23.4,41.1c0.3,0.6,1,1,1.7,1
		c0.3,0,0.7-0.1,1-0.3l11-6.3c0.5-0.3,0.8-0.7,0.9-1.2c0.1-0.5,0.1-1-0.2-1.5l-0.6-1l17.4-33.2C59.8,14.7,59.4,13.5,58.5,13z
		 M26.2,6.8l12.6,0.1l-0.1,4.7l-12.6-0.2L26.2,6.8z M26.2,13.4l12.6,0.2l-0.1,5l-12.6-0.2L26.2,13.4z M26.1,20.4l12.5,0.2l-0.1,5
		l-9.9-0.2L26,20.9L26.1,20.4z M36.7,39.7l-2.9-5.1l4.6,0.1l-0.1,5H36.7z M38.2,41.7v0.7l-0.4-0.7H38.2z M32.7,32.6l-2.9-5.1
		l8.7,0.1l-0.1,5H32.7z M6.5,16l10.9-6.3l2.3,4.1l-11,6.3L6.5,16z M9.7,21.8l10.9-6.2l2.5,4.4l-10.9,6.2L9.7,21.8z M13.2,27.9
		l10.9-6.2l2.5,4.4l-10.9,6.2L13.2,27.9z M16.7,34l10.9-6.2l2.5,4.4l-10.9,6.2L16.7,34z M20.2,40.1l10.9-6.2l2.5,4.4l-10.9,6.2
		L20.2,40.1z M29.8,57l-6.2-10.8L34.5,40l6.2,10.8L29.8,57z M40.7,46.8l-0.6-1V45l1.2,0.6L40.7,46.8z M42.3,43.8l-2.1-1.1l0.1-5.6
		l4.3,2.3L42.3,43.8z M45.6,37.6l-5.2-2.7l0.1-5.6l7.4,3.9L45.6,37.6z M48.8,31.3l-8.3-4.4l0.1-5.6l10.6,5.6L48.8,31.3z M52.1,25.1
		L41,19.3l2.3-4.5l11.1,5.8L52.1,25.1z M55.4,18.9l-11.1-5.8l2-4.2l11.2,5.8L55.4,18.9z"/>
	<path class="st3" d="M32.3,45.6c-0.5,0-1.1,0.1-1.5,0.4c-1.5,0.8-2,2.7-1.1,4.2c0.5,1,1.6,1.6,2.7,1.6c0.5,0,1.1-0.1,1.5-0.4
		c1.5-0.8,2-2.7,1.1-4.2C34.4,46.2,33.4,45.6,32.3,45.6z M32.8,49.6c-0.5,0.3-1.2,0.1-1.5-0.4s-0.1-1.2,0.4-1.5
		c0.2-0.1,0.3-0.1,0.5-0.1c0.4,0,0.7,0.2,0.9,0.5C33.5,48.7,33.4,49.3,32.8,49.6z"/>
</g>
</svg>
