<?xml version="1.0" encoding="utf-8"?>
<!-- Generator: Adobe Illustrator 24.3.0, SVG Export Plug-In . SVG Version: 6.00 Build 0)  -->
<svg version="1.1" id="Layer_1" xmlns="http://www.w3.org/2000/svg" xmlns:xlink="http://www.w3.org/1999/xlink" x="0px" y="0px"
	 viewBox="0 0 64 64" style="enable-background:new 0 0 64 64;" xml:space="preserve">
<style type="text/css">
	.st0{fill:#1EB7D3;}
	.st1{fill:#C0E3EC;}
	.st2{fill:#82858C;}
	.st3{fill:#101A1E;}
</style>
<g>
	<path class="st0" d="M29.1,34.5h5.7c0.2-2.9,1.9-4.8,2.8-5.7L33,19.7V24c0,0.6-0.4,1-1,1c-0.6,0-1-0.4-1-1v-4.3l-4.7,9.1
		C27.2,29.7,28.9,31.6,29.1,34.5z"/>
	<path class="st1" d="M27.2,22.6H13.7v19.3h36.6V22.6H36.7l3.1,6c0.2,0.4,0.1,1-0.3,1.3c-0.1,0.1-2.3,1.6-2.6,4.6
		c0.7,0.2,1.2,0.8,1.2,1.6v1.4c0,0.9-0.8,1.7-1.7,1.7h-9.1c-0.9,0-1.7-0.8-1.7-1.7V36c0-0.9,0.6-1.6,1.5-1.7c-0.3-3-2.5-4.5-2.6-4.6
		c-0.4-0.3-0.6-0.8-0.3-1.3L27.2,22.6z"/>
	<path class="st0" d="M38.2,47.2l-0.7,0.9c-0.2,0.3-0.5,0.4-0.8,0.4h-9.6c-0.3,0-0.6-0.2-0.8-0.4l-0.7-0.9H9.1H5.2v0.7l3.5,1.9h46.6
		l3.5-1.9v-0.7h-3.9H38.2z"/>
	<path class="st2" d="M26.6,45.2L26.6,45.2c0.2,0.1,0.3,0.1,0.3,0.2c0,0,0,0,0,0.1l0.1,0.1l0.7,0.9h8.6l0.7-0.9l0.1-0.1l0,0
		c0.1-0.1,0.2-0.1,0.3-0.2c0,0,0,0,0.1,0s0.2-0.1,0.4-0.1l0,0h17v-26H35l0.7,1.4h15.6c0.6,0,1,0.4,1,1V43c0,0.6-0.4,1-1,1H12.7
		c-0.6,0-1-0.4-1-1V21.6c0-0.6,0.4-1,1-1h15.6l0.7-1.4H9.2v26h17C26.4,45.2,26.5,45.2,26.6,45.2z"/>
	<polygon class="st0" points="35.8,36.5 28.2,36.5 27.7,36.5 27.7,37.2 36,37.2 36,36.5 	"/>
	<path class="st3" d="M59.8,45.2h-3V19.1c0-1-0.9-1.9-1.9-1.9H34l-0.7-1.3h0.5v-0.7h10.7c0.1,0,0.2,0,0.3-0.1
		c0.3,0.5,0.9,0.9,1.5,0.9c1,0,1.8-0.8,1.8-1.8s-0.8-1.8-1.8-1.8c-0.7,0-1.2,0.4-1.5,0.9c-0.1,0-0.2-0.1-0.3-0.1H33.8v-0.9h-3.6v0.9
		H19.5c-0.1,0-0.2,0-0.3,0.1c-0.3-0.5-0.9-0.9-1.5-0.9c-1,0-1.8,0.8-1.8,1.8s0.8,1.8,1.8,1.8c0.7,0,1.2-0.4,1.5-0.9
		c0.1,0,0.2,0.1,0.3,0.1h10.7v0.7h0.5L30,17.2H9.1c-1,0-1.9,0.9-1.9,1.9v26.1h-3c-0.6,0-1,0.4-1,1v2.3c0,0.4,0.2,0.7,0.5,0.9L8,51.7
		c0.1,0.1,0.3,0.1,0.5,0.1h47.1c0.2,0,0.3,0,0.5-0.1l4.3-2.3c0.3-0.2,0.5-0.5,0.5-0.9v-2.3C60.8,45.7,60.4,45.2,59.8,45.2z M31,19.7
		V24c0,0.6,0.4,1,1,1c0.6,0,1-0.4,1-1v-4.3l4.7,9.1c-0.9,0.9-2.6,2.8-2.8,5.7h-5.7c-0.2-2.9-1.9-4.8-2.8-5.7L31,19.7z M24.5,29.9
		c0.1,0.1,2.3,1.6,2.6,4.6c-0.8,0.1-1.5,0.8-1.5,1.7v1.4c0,0.9,0.8,1.7,1.7,1.7h9.1c0.9,0,1.7-0.8,1.7-1.7v-1.4
		c0-0.8-0.5-1.4-1.2-1.6c0.3-3,2.5-4.6,2.6-4.6c0.4-0.3,0.6-0.8,0.3-1.3l-3.1-6h13.6V42H13.7V22.6h13.6l-3.1,6
		C24,29,24.1,29.6,24.5,29.9z M27.7,37.2v-0.8h0.5h7.7h0.3v0.8H27.7z M9.2,19.2H29l-0.7,1.4H12.7c-0.6,0-1,0.4-1,1v21.3
		c0,0.6,0.4,1,1,1h38.6c0.6,0,1-0.4,1-1V21.6c0-0.6-0.4-1-1-1H35.7L35,19.2h19.8v26h-17l0,0c-0.1,0-0.2,0-0.4,0.1c0,0,0,0-0.1,0
		S37,45.3,37,45.5l0,0l-0.1,0.1l-0.7,0.9h-8.6L27,45.7l-0.1-0.1c0,0,0,0,0-0.1c-0.1-0.1-0.2-0.1-0.3-0.2c0,0,0,0-0.1,0
		s-0.2-0.1-0.3-0.1h-17C9.2,45.2,9.2,19.2,9.2,19.2z M58.8,47.9l-3.5,1.9H8.7l-3.5-1.9v-0.7h3.9h16.6l0.7,0.9
		c0.2,0.3,0.5,0.4,0.8,0.4h9.6c0.3,0,0.6-0.2,0.8-0.4l0.7-0.9h16.6h3.9C58.8,47.2,58.8,47.9,58.8,47.9z"/>
</g>
</svg>
